<svg width="17" height="17" viewBox="0 0 17 17" fill="none" xmlns="http://www.w3.org/2000/svg">
<path d="M9.08504 0.000444755C9.3072 0.0493201 9.53247 0.0879755 9.75152 0.148403C10.7739 0.431436 11.6092 0.997502 12.2553 1.83816C12.5236 2.18739 12.7005 2.59173 12.7103 3.02494C12.7316 3.96246 12.7916 4.90442 12.676 5.83927C12.5196 7.10603 11.8807 8.08887 10.837 8.80734C10.6619 8.92775 10.566 9.04105 10.5966 9.25699C10.6135 9.37607 10.5997 9.49959 10.5997 9.62134C10.5997 10.2283 10.6006 10.2243 11.1751 10.35C11.9594 10.5215 12.7445 10.6917 13.5256 10.877C14.6795 11.1511 15.4513 11.8669 15.841 12.9773C16.2155 14.0446 16.5585 15.1229 16.9127 16.1969C17.0384 16.579 16.9304 16.8704 16.6367 16.9655C16.3381 17.0619 16.0907 16.9002 15.9591 16.5079C15.6099 15.4668 15.2616 14.4253 14.919 13.3821C14.592 12.3859 13.8535 11.9167 12.8684 11.7496C12.7329 11.7265 12.7254 11.795 12.7263 11.8954C12.7289 12.1606 12.7329 12.4259 12.7245 12.6912C12.7205 12.8133 12.7711 12.8498 12.8804 12.8924C13.8695 13.2781 14.3383 14.0135 14.3223 15.0705C14.3156 15.5126 14.3245 15.9547 14.32 16.3968C14.316 16.7998 14.1352 16.9762 13.7318 16.9815C13.5882 16.9833 13.4443 16.9815 13.3008 16.9815C13.0333 16.982 12.8569 16.8518 12.8009 16.5932C12.7414 16.3186 12.8538 16.0893 13.119 16.0187C13.311 15.9676 13.3292 15.8832 13.319 15.7259C13.2959 15.3629 13.3581 14.9967 13.2732 14.636C13.1457 14.0925 12.6512 13.7406 12.0927 13.7975C11.5648 13.8513 11.1494 14.3036 11.1338 14.8479C11.1276 15.0687 11.1316 15.29 11.1316 15.5108C11.1316 15.7503 11.0689 15.9929 11.4293 16.0827C11.6199 16.1302 11.6981 16.3701 11.6452 16.5861C11.5946 16.7931 11.4617 16.934 11.2431 16.9771C11.2218 16.9815 11.1991 16.9789 11.1769 16.9806C10.2501 17.0588 10.1096 16.9318 10.111 16.0076C10.1114 15.6099 10.1048 15.2113 10.1212 14.8141C10.1599 13.8882 10.6388 13.2639 11.4862 12.9298C11.683 12.852 11.727 12.7542 11.7194 12.5694C11.7083 12.3046 11.6977 12.0371 11.7221 11.7741C11.7434 11.5435 11.6443 11.4679 11.4404 11.4333C11.1476 11.3835 10.853 11.3311 10.5704 11.244C10.3802 11.1854 10.2967 11.2404 10.2047 11.3986C9.83905 12.0273 9.43294 12.6334 9.09393 13.2759C8.72425 13.9757 8.22439 13.9397 7.87604 13.2643C7.54325 12.6196 7.13403 12.0145 6.76479 11.388C6.68171 11.2467 6.60528 11.1836 6.42444 11.2387C6.12008 11.3315 5.80684 11.4066 5.49181 11.4511C5.28343 11.4804 5.2541 11.5764 5.25677 11.7554C5.26565 12.3632 5.27054 12.9715 5.25499 13.5789C5.24921 13.8113 5.29942 13.945 5.52514 14.0659C6.21561 14.4351 6.49953 15.2496 6.22805 15.9698C5.96279 16.6741 5.20789 17.1042 4.47609 16.9678C3.71542 16.826 3.15024 16.1298 3.19112 15.3522C3.22178 14.7706 3.4977 14.316 4.01889 14.049C4.21039 13.9508 4.25838 13.8419 4.25393 13.6429C4.2406 13.0795 4.2446 12.5156 4.25216 11.9518C4.25438 11.7821 4.23438 11.7345 4.03488 11.7679C2.95385 11.9487 2.29048 12.5556 1.9799 13.6096C1.69464 14.5782 1.34674 15.5281 1.03038 16.4879C0.954847 16.7172 0.858873 16.9251 0.593614 16.9753C0.311025 17.0291 0.137295 16.8687 0 16.6496C0 16.5168 0 16.3844 0 16.2515C0.337684 14.9594 0.719801 13.6789 1.27609 12.465C1.69731 11.5457 2.47576 11.0143 3.45238 10.7824C4.26904 10.5882 5.08837 10.4073 5.91036 10.2376C6.16896 10.1843 6.30803 10.0679 6.27826 9.79151C6.27115 9.7262 6.27026 9.65822 6.27871 9.5929C6.32669 9.20723 6.18718 8.94997 5.86327 8.70248C4.73025 7.8365 4.18107 6.65638 4.15752 5.23455C4.1473 4.61606 4.1584 3.99712 4.15529 3.37862C4.15174 2.66015 4.39256 2.04432 4.88443 1.51558C5.41139 0.949071 6.00323 0.486977 6.73769 0.216829C7.06338 0.0968623 7.39351 0.0288818 7.73964 0.0342136C7.85649 0.018218 7.97957 0.0697585 8.09154 0C8.42211 0.000444322 8.75358 0.000444755 9.08504 0.000444755Z" fill="#0C579D"/>
</svg>
