<svg width="24" height="18" viewBox="0 0 24 18" fill="none" xmlns="http://www.w3.org/2000/svg">
<path d="M23.4675 14.9126C23.265 15.268 22.9654 15.3846 22.5548 15.3785C21.1038 15.3582 19.6528 15.3705 18.2018 15.3705C17.5948 15.3705 17.5948 15.3705 17.5942 15.9567C17.5942 15.972 17.5942 15.9873 17.5942 16.0027C17.5924 16.7681 17.3585 16.9995 16.5735 17.0001C14.8322 17.0013 13.0909 17.0007 11.3496 17.0007C9.85254 17.0007 8.35613 17.0025 6.85911 17.0001C6.1109 16.9989 5.87644 16.7607 5.8746 16.0137C5.8746 15.9223 5.86232 15.8284 5.87705 15.7394C5.92493 15.4399 5.80647 15.3613 5.50694 15.3644C3.97984 15.3803 2.45213 15.3723 0.925035 15.3711C0.206292 15.3699 0.00251588 15.1673 0.0019021 14.4523C0.00128831 13.5512 -0.0023944 12.6502 0.00251588 11.7492C0.0123364 9.86239 0.866725 8.45559 2.47177 7.503C2.74798 7.33912 2.79401 7.24828 2.61356 6.97392C2.37664 6.61485 2.26922 6.19564 2.29377 5.75555C2.32937 5.11783 2.20478 4.47213 2.37173 3.84177C2.69335 2.62525 3.87243 1.78805 5.03617 1.94149C6.40122 2.12133 7.32374 3.13162 7.33418 4.46108C7.33724 4.90362 7.32927 5.34677 7.33663 5.78931C7.34216 6.1005 7.25745 6.38775 7.166 6.68053C7.09419 6.91131 6.7744 7.1513 6.89962 7.3115C7.09296 7.55824 7.44343 7.68038 7.72393 7.86083C7.84914 7.94124 7.91543 7.85347 7.99461 7.78595C8.3905 7.44714 8.82751 7.16664 9.30381 6.96103C9.53521 6.86098 9.47874 6.78364 9.36396 6.63817C8.88951 6.03667 8.72747 5.33572 8.73238 4.58445C8.73606 4.06519 8.72072 3.54593 8.73667 3.02666C8.78823 1.3498 9.98634 0.103821 11.6282 0.00500131C13.1357 -0.0858389 14.486 1.07053 14.6916 2.67926C14.796 3.49621 14.764 4.32482 14.6978 5.14729C14.6542 5.69049 14.4639 6.18888 14.1171 6.61055C13.9477 6.81679 13.9919 6.89474 14.219 6.9911C14.6701 7.18137 15.0875 7.43916 15.446 7.77245C15.6111 7.9259 15.7191 7.88109 15.8725 7.77613C16.0978 7.62207 16.4256 7.54351 16.5495 7.33666C16.695 7.09483 16.3384 6.8843 16.2795 6.62099C16.0548 5.6107 15.9904 4.58506 16.2973 3.59994C16.6692 2.40551 17.8716 1.77025 19.1299 1.98814C20.3004 2.19069 21.1763 3.22553 21.1689 4.44451C21.1646 5.12765 21.2511 5.81509 21.0799 6.49516C21.0032 6.7996 20.63 7.06476 20.7669 7.33543C20.8835 7.56622 21.2695 7.64785 21.5102 7.83014C22.5229 8.59615 23.1735 9.59355 23.3914 10.8573C23.4037 10.9279 23.4411 10.9942 23.4663 11.063C23.4675 12.3464 23.4675 13.6292 23.4675 14.9126Z" fill="white"/>
<path d="M11.7351 15.581C10.3922 15.581 9.04861 15.5712 7.70627 15.5878C7.38526 15.5914 7.24654 15.5399 7.26188 15.1716C7.30731 14.0594 7.21646 12.9436 7.31406 11.832C7.49512 9.77092 9.21618 8.01734 11.2079 7.85284C13.517 7.66196 15.5161 9.02886 16.0476 11.1562C16.1593 11.6037 16.1937 12.0585 16.1974 12.5152C16.2047 13.3542 16.1753 14.1945 16.2096 15.0323C16.2274 15.4583 16.1354 15.6056 15.6732 15.5927C14.3609 15.5577 13.0474 15.581 11.7351 15.581Z" fill="#419CD9"/>
<path d="M3.59734 13.9962C2.95716 13.9962 2.31637 13.9975 1.67619 13.995C1.53441 13.9944 1.36194 14.0515 1.3736 13.7906C1.41534 12.8638 1.29442 11.9315 1.46321 11.0083C1.88243 8.7097 4.71504 7.50913 6.64908 8.80913C6.79086 8.90427 6.9259 8.96872 6.78288 9.18538C6.01074 10.3516 5.83336 11.6589 5.87019 13.024C5.89658 13.9956 5.8751 13.9962 4.92373 13.9962C4.48119 13.9962 4.03927 13.9962 3.59734 13.9962Z" fill="#419CD9"/>
<path d="M19.847 13.9962C19.6034 13.9962 19.3591 14.0048 19.1154 13.9944C18.6176 13.9723 17.9535 14.2061 17.6712 13.9048C17.425 13.6421 17.5932 12.9816 17.5969 12.4974C17.6006 12.0076 17.5521 11.5251 17.452 11.047C17.317 10.4019 17.0881 9.78934 16.7229 9.24185C16.5645 9.00493 16.6443 8.91838 16.8395 8.79317C18.7803 7.54596 21.5282 8.68453 21.994 10.9439C22.1898 11.8928 22.0585 12.8589 22.0929 13.8164C22.1015 14.0466 21.9394 13.9956 21.8136 13.9962C21.1581 13.9975 20.5025 13.9962 19.847 13.9962Z" fill="#419CD9"/>
<path d="M13.3133 3.91481C13.3133 4.23521 13.3225 4.55561 13.3115 4.87539C13.2802 5.77335 12.613 6.41353 11.7224 6.40924C10.8551 6.40555 10.1848 5.76906 10.1603 4.89748C10.1419 4.24258 10.1419 3.58583 10.1603 2.93092C10.1848 2.05811 10.8545 1.42469 11.723 1.42101C12.5958 1.41732 13.2703 2.04461 13.3084 2.90882C13.3231 3.24333 13.3109 3.57969 13.3109 3.91481C13.3121 3.91481 13.3127 3.91481 13.3133 3.91481Z" fill="#419CD9"/>
<path d="M3.67074 5.11967C3.67012 4.90669 3.65969 4.69248 3.67196 4.48011C3.71125 3.81108 4.17281 3.35136 4.8001 3.34645C5.43353 3.34153 5.91473 3.78776 5.95217 4.4531C5.97673 4.89318 5.97857 5.33756 5.95033 5.77703C5.90737 6.43931 5.41879 6.87755 4.7823 6.86527C4.17649 6.85361 3.71984 6.40371 3.6738 5.75923C3.65846 5.54686 3.67135 5.33265 3.67074 5.11967Z" fill="#419CD9"/>
<path d="M17.5128 5.12091C17.5128 4.89258 17.4975 4.66303 17.5159 4.43593C17.5668 3.79452 18.0309 3.35198 18.6397 3.34646C19.2572 3.34093 19.7415 3.76506 19.7875 4.40646C19.8213 4.87601 19.8231 5.35231 19.7857 5.82124C19.7347 6.45958 19.2431 6.87695 18.6238 6.86529C18.0345 6.85424 17.5779 6.4252 17.5184 5.80589C17.4969 5.57941 17.5147 5.34985 17.5147 5.12091C17.5147 5.12091 17.5141 5.12091 17.5128 5.12091Z" fill="#419CD9"/>
<path d="M11.7405 13.9035C11.3022 13.9072 11.0033 13.6095 11.0371 13.0805C11.0665 12.6189 10.9352 12.4789 10.473 12.5188C9.98441 12.5606 9.66954 12.2672 9.65665 11.8596C9.64315 11.4374 9.96968 11.1298 10.484 11.1648C10.9039 11.1931 11.072 11.1077 11.0383 10.6394C10.9972 10.0772 11.2955 9.77215 11.7509 9.78136C12.1842 9.78995 12.4666 10.0895 12.4328 10.6259C12.4052 11.0672 12.5267 11.2017 12.9723 11.1661C13.491 11.1243 13.8181 11.4269 13.8144 11.8467C13.8107 12.2666 13.4848 12.5636 12.9631 12.5182C12.4997 12.4777 12.4113 12.6441 12.4334 13.0682C12.461 13.6009 12.175 13.8999 11.7405 13.9035Z" fill="white"/>
</svg>
