<svg width="20" height="18" viewBox="0 0 20 18" fill="none" xmlns="http://www.w3.org/2000/svg">
<g clip-path="url(#clip0_164_117)">
<path d="M6.77143 0C7.08363 0.0818291 7.40116 0.146314 7.70668 0.2486C9.68348 0.911683 11.0043 2.73505 11.0163 4.81458C11.023 5.99799 11.0177 7.1814 11.0177 8.36525C11.0177 9.05012 10.987 9.16442 10.6476 9.73855C11.8435 10.2117 12.3474 10.9553 12.3474 12.2477C12.3474 13.6637 12.3478 15.0792 12.3469 16.4952C12.3465 16.9128 12.2602 17 11.8471 17.0004C8.06424 17.0009 4.28142 17.0009 0.498606 17.0004C0.0850133 17.0004 0.000960603 16.9146 0.000960603 16.4939C-0.000373568 15.0775 7.11558e-05 13.6615 7.11558e-05 12.2459C7.11558e-05 10.9518 0.502164 10.2117 1.71315 9.73322C1.40184 9.33964 1.32001 8.88735 1.32579 8.39727C1.33913 7.2361 1.32846 6.07448 1.33068 4.91331C1.33513 2.4362 2.98861 0.484749 5.44126 0.0569246C5.46661 0.0524774 5.48707 0.0195678 5.50975 0C5.93046 0 6.35072 0 6.77143 0Z" fill="#0C579D"/>
<path d="M10.3411 6.66552C10.3411 7.28502 10.3442 7.90452 10.3402 8.52402C10.3353 9.26226 9.95288 9.64606 9.21909 9.65451C8.88732 9.65851 8.55511 9.6474 8.22335 9.65851C8.06192 9.66385 8.00054 9.6087 8.02145 9.45172C8.02723 9.40813 8.02634 9.36277 8.02189 9.31919C7.96541 8.77618 8.05614 8.33857 8.52132 7.93032C9.11191 7.41133 9.33605 6.65619 9.35028 5.86636C9.36451 5.0703 9.35606 4.27336 9.35339 3.47686C9.35206 3.10107 9.23865 3.00278 8.85397 2.98989C8.36922 2.97388 7.88225 3.04192 7.39928 2.94052C6.80157 2.81511 6.35996 2.47712 6.04332 1.96569C5.78182 1.54276 5.56924 1.54676 5.2984 1.97547C4.88437 2.63055 4.28933 2.97432 3.51151 2.99122C3.08768 3.00056 2.9854 3.09306 2.99607 3.52533C3.0192 4.46414 2.92358 5.40562 3.05166 6.34132C3.15617 7.10669 3.52618 7.73642 4.1101 8.2314C4.27065 8.36793 4.34759 8.49512 4.32891 8.70325C4.30178 9.00922 4.45343 9.41125 4.27154 9.59848C4.08965 9.7857 3.68628 9.63983 3.38031 9.65451C3.2589 9.66029 3.1366 9.65896 3.01519 9.65318C2.43172 9.6256 2.01812 9.26049 2.01635 8.67612C2.0119 7.23877 1.94208 5.7992 2.05103 4.36408C2.1889 2.54872 3.76856 0.975288 5.5688 0.712456C7.68168 0.403818 9.8417 1.81448 10.2655 4.08257C10.3963 4.78257 10.3305 5.49457 10.3407 6.20168C10.3429 6.356 10.3411 6.51076 10.3411 6.66552Z" fill="white"/>
<path d="M3.18061 16.336C2.42814 16.336 1.67611 16.3285 0.92364 16.3409C0.718623 16.3445 0.665256 16.2889 0.667035 16.083C0.676819 14.7444 0.664367 13.4057 0.67504 12.0671C0.6826 11.1061 1.37637 10.3692 2.24847 10.3465C2.44949 10.3411 2.51708 10.387 2.51219 10.5986C2.49796 11.2177 2.49885 11.8376 2.51219 12.4571C2.5162 12.6453 2.44371 12.7133 2.28316 12.7929C1.54625 13.1576 1.45286 13.7682 1.5209 14.4019C1.54003 14.582 1.67078 14.6719 1.84466 14.6687C2.03723 14.6652 2.1493 14.5442 2.17776 14.3614C2.19599 14.2423 2.18087 14.1186 2.18621 13.9972C2.20267 13.6401 2.43748 13.3795 2.77058 13.3461C3.11746 13.311 3.41498 13.5311 3.48436 13.8936C3.51326 14.0439 3.50215 14.2013 3.51282 14.3557C3.52661 14.5527 3.64268 14.6621 3.83169 14.6683C4.02336 14.675 4.13855 14.5576 4.17546 14.3743C4.3071 13.7219 3.98467 13.0588 3.37673 12.7818C3.22998 12.7151 3.17794 12.6515 3.17972 12.4963C3.18684 11.8545 3.18728 11.2128 3.17928 10.5715C3.17705 10.4074 3.20996 10.334 3.39452 10.3447C3.71384 10.3634 4.09541 10.2509 4.33867 10.3901C4.59305 10.535 4.53302 10.9638 4.60417 11.2684C4.97552 12.8663 5.33218 14.4682 5.69997 16.067C5.74933 16.2813 5.70219 16.3467 5.47094 16.3422C4.70735 16.3267 3.94376 16.336 3.18061 16.336Z" fill="white"/>
<path d="M5.67875 2.63498C6.36451 3.47729 7.26819 3.73567 8.29106 3.66185C8.59036 3.64005 8.68908 3.72455 8.67441 4.03586C8.64328 4.70872 8.68286 5.38559 8.64016 6.05713C8.55789 7.34549 7.46476 8.3221 6.15727 8.31588C4.86624 8.30965 3.78556 7.33482 3.70685 6.05846C3.66149 5.32066 3.68595 4.57842 3.68061 3.83796C3.68016 3.75257 3.6646 3.66229 3.80157 3.64939C4.56338 3.57913 5.17399 3.21623 5.67875 2.63498Z" fill="white"/>
<path d="M9.1359 16.336C8.37231 16.336 7.60827 16.3294 6.84513 16.3405C6.64589 16.3436 6.60008 16.2871 6.64233 16.0999C7.06438 14.2414 7.48331 12.382 7.89823 10.5217C7.92892 10.3847 7.99474 10.3434 8.12638 10.3465C8.41411 10.3532 8.70229 10.3567 8.98958 10.3452C9.14613 10.3389 9.17281 10.4061 9.16836 10.5404C9.16036 10.7837 9.15146 11.0282 9.16925 11.2706C9.20172 11.7073 9.18215 12.0507 8.69295 12.3064C8.17485 12.5772 8.04366 13.2834 8.26691 13.834C8.48971 14.3832 9.05273 14.7257 9.64155 14.6696C10.1921 14.6176 10.6969 14.1764 10.8134 13.6459C10.9441 13.0504 10.6746 12.414 10.1316 12.165C9.88437 12.0516 9.82255 11.9141 9.83634 11.6669C9.8559 11.3138 9.85279 10.9584 9.83678 10.6049C9.82789 10.4025 9.88303 10.3407 10.0934 10.3456C10.9277 10.3656 11.6437 11.0518 11.6646 11.9631C11.6966 13.3568 11.6704 14.7519 11.6802 16.1461C11.6815 16.3636 11.5601 16.336 11.4267 16.336C10.6631 16.3356 9.89949 16.336 9.1359 16.336Z" fill="white"/>
<path d="M6.15282 15.0179C5.77347 13.3399 5.39635 11.7354 5.05702 10.1223C4.97875 9.751 5.03034 9.35208 5.01922 8.96606C5.01566 8.84732 5.06458 8.80063 5.17799 8.83887C5.83707 9.06212 6.49615 9.05857 7.15656 8.84376C7.37714 8.77216 7.31755 8.94383 7.32778 9.05101C7.40338 9.83461 7.19926 10.5822 7.03115 11.3338C6.76654 12.5141 6.4997 13.6944 6.23287 14.8742C6.2262 14.9018 6.20485 14.9254 6.15282 15.0179Z" fill="white"/>
<path d="M9.49892 12.6795C9.86537 12.6755 10.1544 12.9526 10.1629 13.3164C10.1718 13.6855 9.8627 14.0026 9.50025 13.9972C9.15159 13.9919 8.84517 13.6828 8.84473 13.3346C8.84384 12.9833 9.14314 12.6835 9.49892 12.6795Z" fill="#FDFDFD"/>
</g>
<path d="M18.9997 11.5205C18.9809 14.5548 16.5608 17.0025 13.5085 17C10.3347 16.9981 7.96775 14.4094 8.00033 11.4347C8.03291 8.41228 10.5289 5.9702 13.5649 6.00027C16.5608 6.03035 19.0298 8.53886 18.9997 11.5205Z" fill="white" stroke="#0C579D" stroke-width="0.7" stroke-miterlimit="10"/>
<g clip-path="url(#clip1_164_117)">
<path d="M14.0814 14.9999C13.6905 14.9999 13.2995 14.9999 12.9086 14.9999C12.7928 14.9694 12.7191 14.896 12.6921 14.7798C12.554 14.1869 12.387 13.6008 12.2644 13.0044C12.2085 12.7319 12.2774 12.4821 12.4407 12.2578C12.4862 12.1954 12.5374 12.1373 12.5829 12.0749C12.6461 11.9876 12.683 11.8924 12.678 11.7829C12.6758 11.733 12.6733 11.6824 12.6786 11.6329C12.7124 11.3181 12.6146 11.0558 12.3888 10.8312C12.2162 10.6596 12.1406 10.4342 12.0896 10.1992C11.9915 9.74628 11.8912 9.29375 11.7944 8.84048C11.7646 8.70096 11.6928 8.64435 11.56 8.62134C11.0434 8.53167 10.549 8.89582 10.604 9.5443C10.6106 9.62191 10.6553 9.62812 10.7167 9.62173C10.9021 9.60219 11.0779 9.62904 11.2436 9.72144C11.5728 9.90534 11.7496 10.2684 11.6813 10.6291C11.6137 10.9857 11.3013 11.2832 10.9498 11.3261C10.5686 11.3725 10.2114 11.17 10.051 10.8204C10.0214 10.7562 10.0103 10.6882 10.0092 10.6221C10.0011 10.1406 9.99272 9.65862 10.0106 9.1776C10.0254 8.7804 10.2549 8.49661 10.5496 8.25482C10.868 7.99294 11.2418 7.99221 11.6234 8.00993C11.7949 8.01778 11.9526 8.07074 12.1113 8.12571C12.4117 8.2298 12.7036 8.25245 13.0151 8.13521C13.3509 8.00883 13.7078 8.01614 14.0438 8.14744C14.3209 8.25573 14.5855 8.24825 14.8524 8.14215C15.2084 8.00061 15.578 7.97176 15.9507 8.02417C16.2976 8.07293 16.555 8.28313 16.7645 8.55267C16.901 8.72817 16.9947 8.92284 16.986 9.15349C16.9925 9.20244 16.9713 9.2543 16.9998 9.30123C16.9998 9.74664 16.9998 10.1919 16.9998 10.6373C16.9487 11.1325 16.4388 11.3796 16.0641 11.3259C15.624 11.2628 15.2996 10.865 15.3259 10.4074C15.3507 9.97327 15.7371 9.61662 16.1823 9.6168C16.4321 9.6168 16.4321 9.6168 16.4127 9.36625C16.3709 8.82386 15.8882 8.49113 15.3648 8.64051C15.2725 8.66681 15.2325 8.72379 15.2146 8.81199C15.1202 9.27494 15.0086 9.73404 14.9119 10.1964C14.8615 10.4375 14.7747 10.6628 14.6035 10.8394C14.3396 11.1117 14.2787 11.4361 14.3127 11.7949C14.3248 11.9226 14.3741 12.0343 14.4583 12.126C14.7548 12.4491 14.799 12.8148 14.692 13.2294C14.5763 13.6777 14.4603 14.1266 14.3624 14.5797C14.3491 14.6418 14.3317 14.7031 14.3136 14.7641C14.278 14.8843 14.2161 14.9776 14.0814 14.9999Z" fill="#0C579D"/>
<path d="M16.9757 9.1589C16.9842 9.15835 16.9921 9.16036 16.9994 9.16493C16.9994 9.2104 16.9994 9.25587 16.9994 9.30135C16.9599 9.25898 16.9689 9.20876 16.9757 9.1589Z" fill="#444141"/>
<path d="M12.3877 8.78727C12.7202 8.87292 13.0032 8.75038 13.2944 8.67076C13.5118 8.61141 13.7272 8.64447 13.9325 8.73066C14.1243 8.8112 14.3191 8.86087 14.5275 8.81905C14.5907 8.80645 14.6104 8.82544 14.5962 8.88845C14.501 9.30719 14.4091 9.72667 14.3116 10.1449C14.2681 10.3313 14.1504 10.4782 14.0288 10.6186C13.8172 10.8629 13.7133 11.1429 13.7257 11.4667C13.7303 11.5846 13.7284 11.7028 13.7262 11.8208C13.7219 12.0483 13.7957 12.2465 13.9403 12.4209C13.9924 12.4835 14.0436 12.5478 14.0881 12.6157C14.1552 12.718 14.1806 12.8299 14.1504 12.9523C14.0352 13.4218 13.9206 13.8917 13.8075 14.3617C13.792 14.4266 13.7681 14.4613 13.6906 14.4563C13.5372 14.4467 13.3444 14.5033 13.2405 14.4297C13.1477 14.3641 13.1497 14.161 13.1148 14.0173C13.0326 13.6791 12.9582 13.3391 12.8705 13.0023C12.8241 12.8245 12.8576 12.6758 12.9688 12.5328C13.4257 11.9451 13.4138 11.1433 12.9383 10.5727C12.79 10.3947 12.6915 10.1989 12.6456 9.97047C12.568 9.58551 12.4787 9.20255 12.3877 8.78727Z" fill="white"/>
<path d="M16.1861 10.7451C16.0471 10.7488 15.9152 10.6237 15.9094 10.4823C15.9037 10.3437 16.027 10.2104 16.1686 10.2024C16.3122 10.1942 16.4509 10.3258 16.4523 10.4716C16.4536 10.6111 16.3268 10.7415 16.1861 10.7451Z" fill="#FDFDFD"/>
<path d="M10.8361 10.7451C10.696 10.7453 10.567 10.6182 10.5645 10.4772C10.5619 10.3377 10.6878 10.2068 10.8288 10.2022C10.9733 10.1975 11.1096 10.3319 11.1074 10.4769C11.1052 10.6173 10.9763 10.745 10.8361 10.7451Z" fill="#FDFDFD"/>
</g>
<defs>
<clipPath id="clip0_164_117">
<rect width="12.3473" height="17" fill="white"/>
</clipPath>
<clipPath id="clip1_164_117">
<rect width="7" height="7" fill="white" transform="translate(10 8)"/>
</clipPath>
</defs>
</svg>
