<svg width="21" height="18" viewBox="0 0 21 18" fill="none" xmlns="http://www.w3.org/2000/svg">
<path d="M9.08504 0.000444755C9.3072 0.0493201 9.53247 0.0879755 9.75152 0.148403C10.7739 0.431436 11.6092 0.997502 12.2553 1.83816C12.5236 2.18739 12.7005 2.59173 12.7103 3.02494C12.7316 3.96246 12.7916 4.90442 12.676 5.83927C12.5196 7.10603 11.8807 8.08887 10.837 8.80734C10.6619 8.92775 10.566 9.04105 10.5966 9.25699C10.6135 9.37607 10.5997 9.49959 10.5997 9.62134C10.5997 10.2283 10.6006 10.2243 11.1751 10.35C11.9594 10.5215 12.7445 10.6917 13.5256 10.877C14.6795 11.1511 15.4513 11.8669 15.841 12.9773C16.2155 14.0446 16.5585 15.1229 16.9127 16.1969C17.0384 16.579 16.9304 16.8704 16.6367 16.9655C16.3381 17.0619 16.0907 16.9002 15.9591 16.5079C15.6099 15.4668 15.2616 14.4253 14.919 13.3821C14.592 12.3859 13.8535 11.9167 12.8684 11.7496C12.7329 11.7265 12.7254 11.795 12.7263 11.8954C12.7289 12.1606 12.7329 12.4259 12.7245 12.6912C12.7205 12.8133 12.7711 12.8498 12.8804 12.8924C13.8695 13.2781 14.3383 14.0135 14.3223 15.0705C14.3156 15.5126 14.3245 15.9547 14.32 16.3968C14.316 16.7998 14.1352 16.9762 13.7318 16.9815C13.5882 16.9833 13.4443 16.9815 13.3008 16.9815C13.0333 16.982 12.8569 16.8518 12.8009 16.5932C12.7414 16.3186 12.8538 16.0893 13.119 16.0187C13.311 15.9676 13.3292 15.8832 13.319 15.7259C13.2959 15.3629 13.3581 14.9967 13.2732 14.636C13.1457 14.0925 12.6512 13.7406 12.0927 13.7975C11.5648 13.8513 11.1494 14.3036 11.1338 14.8479C11.1276 15.0687 11.1316 15.29 11.1316 15.5108C11.1316 15.7503 11.0689 15.9929 11.4293 16.0827C11.6199 16.1302 11.6981 16.3701 11.6452 16.5861C11.5946 16.7931 11.4617 16.934 11.2431 16.9771C11.2218 16.9815 11.1991 16.9789 11.1769 16.9806C10.2501 17.0588 10.1096 16.9318 10.111 16.0076C10.1114 15.6099 10.1048 15.2113 10.1212 14.8141C10.1599 13.8882 10.6388 13.2639 11.4862 12.9298C11.683 12.852 11.727 12.7542 11.7194 12.5694C11.7083 12.3046 11.6977 12.0371 11.7221 11.7741C11.7434 11.5435 11.6443 11.4679 11.4404 11.4333C11.1476 11.3835 10.853 11.3311 10.5704 11.244C10.3802 11.1854 10.2967 11.2404 10.2047 11.3986C9.83905 12.0273 9.43294 12.6334 9.09393 13.2759C8.72425 13.9757 8.22439 13.9397 7.87604 13.2643C7.54325 12.6196 7.13403 12.0145 6.76479 11.388C6.68171 11.2467 6.60528 11.1836 6.42444 11.2387C6.12008 11.3315 5.80684 11.4066 5.49181 11.4511C5.28343 11.4804 5.2541 11.5764 5.25677 11.7554C5.26565 12.3632 5.27054 12.9715 5.25499 13.5789C5.24921 13.8113 5.29942 13.945 5.52514 14.0659C6.21561 14.4351 6.49953 15.2496 6.22805 15.9698C5.96279 16.6741 5.20789 17.1042 4.47609 16.9678C3.71542 16.826 3.15024 16.1298 3.19112 15.3522C3.22178 14.7706 3.4977 14.316 4.01889 14.049C4.21039 13.9508 4.25838 13.8419 4.25393 13.6429C4.2406 13.0795 4.2446 12.5156 4.25216 11.9518C4.25438 11.7821 4.23438 11.7345 4.03488 11.7679C2.95385 11.9487 2.29048 12.5556 1.9799 13.6096C1.69464 14.5782 1.34674 15.5281 1.03038 16.4879C0.954847 16.7172 0.858873 16.9251 0.593614 16.9753C0.311025 17.0291 0.137295 16.8687 0 16.6496C0 16.5168 0 16.3844 0 16.2515C0.337684 14.9594 0.719801 13.6789 1.27609 12.465C1.69731 11.5457 2.47576 11.0143 3.45238 10.7824C4.26904 10.5882 5.08837 10.4073 5.91036 10.2376C6.16896 10.1843 6.30803 10.0679 6.27826 9.79151C6.27115 9.7262 6.27026 9.65822 6.27871 9.5929C6.32669 9.20723 6.18718 8.94997 5.86327 8.70248C4.73025 7.8365 4.18107 6.65638 4.15752 5.23455C4.1473 4.61606 4.1584 3.99712 4.15529 3.37862C4.15174 2.66015 4.39256 2.04432 4.88443 1.51558C5.41139 0.949071 6.00323 0.486977 6.73769 0.216829C7.06338 0.0968623 7.39351 0.0288818 7.73964 0.0342136C7.85649 0.018218 7.97957 0.0697585 8.09154 0C8.42211 0.000444322 8.75358 0.000444755 9.08504 0.000444755Z" fill="#0C579D"/>
<path d="M7.75098 0.0617744C7.75586 0.0484447 7.76208 0.0355597 7.7652 0.0217857C7.76653 0.0151209 7.7612 0.00756691 7.75897 0.000457764C7.86961 0.000457764 7.98025 0.000457764 8.09044 0.000457764C7.99224 0.103985 7.87094 0.0786586 7.75098 0.0617744Z" fill="#0C579D"/>
<path d="M8.47944 8.50876C6.73326 8.50342 5.33454 7.14513 5.26922 5.39184C5.26567 5.29409 5.23812 5.20211 5.3763 5.15502C5.76464 5.02261 6.05123 4.74313 6.31649 4.44677C6.43423 4.31525 6.53465 4.32147 6.68661 4.37701C7.88005 4.81289 9.08061 4.81911 10.2732 4.37923C10.4651 4.30858 10.5713 4.3468 10.6944 4.48276C10.9472 4.76224 11.2227 5.01905 11.5861 5.14835C11.7114 5.19278 11.7128 5.26832 11.7101 5.37629C11.6683 7.12336 10.2363 8.51409 8.47944 8.50876Z" fill="white"/>
<path d="M5.2792 4.07133C5.14768 2.70238 5.44226 2.08655 6.87964 1.3663C8.07931 0.765135 9.32297 0.861998 10.4822 1.56269C11.3837 2.10743 11.9214 2.85922 11.6712 4.02201C11.4779 3.8314 11.2811 3.65012 11.0989 3.45461C10.8594 3.19691 10.6173 3.13648 10.2751 3.29244C9.08748 3.83362 7.88248 3.82873 6.69436 3.29022C6.37045 3.14359 6.12963 3.18091 5.89769 3.43595C5.71374 3.63767 5.51735 3.82784 5.2792 4.07133Z" fill="white"/>
<path d="M8.48883 12.3051C8.12982 11.7061 7.7868 11.1689 7.48155 10.6104C7.29405 10.2669 7.43046 9.87461 7.40691 9.50494C7.39891 9.38097 7.50866 9.40896 7.57753 9.42496C8.18891 9.5667 8.79897 9.56536 9.40991 9.4214C9.54631 9.38941 9.57742 9.45695 9.57875 9.58136C9.58364 10.0972 9.60896 10.5993 9.25217 11.0534C8.96381 11.4204 8.75942 11.8532 8.48883 12.3051Z" fill="white"/>
<path d="M5.31069 15.4082C5.31513 15.7205 5.06498 15.9822 4.76018 15.9836C4.46115 15.9849 4.19233 15.7116 4.19633 15.4113C4.20033 15.1211 4.45004 14.867 4.74063 14.8572C5.05254 14.8474 5.30625 15.0923 5.31069 15.4082Z" fill="#FCFCFC"/>
<path d="M19.9997 11.5205C19.9809 14.5548 17.5608 17.0025 14.5085 17C11.3347 16.9981 8.96775 14.4094 9.00033 11.4347C9.03291 8.41228 11.5289 5.9702 14.5649 6.00027C17.5608 6.03035 20.0298 8.53886 19.9997 11.5205Z" fill="white" stroke="#0C579D" stroke-width="0.7" stroke-miterlimit="10"/>
<path d="M13.9152 10.694C13.9152 10.2467 13.9106 9.79939 13.9164 9.35308C13.921 8.9516 14.1673 8.70952 14.5628 8.70354C14.9675 8.69757 15.2219 8.9267 15.2253 9.33316C15.2334 10.2148 15.2427 11.0965 15.2196 11.9781C15.2115 12.272 15.3225 12.3427 15.6393 12.3049C16.118 12.2481 16.4244 11.9891 16.4314 11.5637C16.4429 10.8564 16.4337 10.1481 16.4372 9.43975C16.4395 8.89183 16.6603 8.70454 17.2929 8.70255C17.5241 8.70155 17.7554 8.69657 17.9855 8.70454C18.3775 8.7165 18.6596 8.94861 18.6666 9.25346C18.6724 9.53937 18.418 9.80337 18.0491 9.81034C17.7681 9.81533 17.7612 9.92392 17.7635 10.1052C17.7704 10.6143 17.7901 11.1254 17.7508 11.6324C17.671 12.6834 16.8222 13.4097 15.6046 13.4495C15.2554 13.4605 15.2068 13.5631 15.2207 13.8171C15.2427 14.2266 15.2323 14.637 15.2242 15.0465C15.2172 15.443 14.9559 15.699 14.5766 15.7C14.1939 15.701 13.9222 15.441 13.9164 15.0515C13.9094 14.6042 13.906 14.1569 13.9187 13.7106C13.9245 13.5263 13.8759 13.4655 13.64 13.4545C12.2247 13.3928 11.3979 12.6336 11.3944 11.4182C11.3933 10.9709 11.3886 10.5236 11.3967 10.0773C11.4002 9.90997 11.3886 9.81632 11.1319 9.81134C10.7237 9.80337 10.4867 9.5583 10.5006 9.23752C10.5145 8.92172 10.7781 8.71351 11.1874 8.70354C11.4326 8.69757 11.6789 8.70055 11.924 8.70255C12.4617 8.70753 12.6907 8.89681 12.6941 9.35209C12.6988 10.0604 12.6884 10.7677 12.6976 11.476C12.7045 11.9961 13.0491 12.2909 13.6215 12.3119C13.8354 12.3198 13.9279 12.282 13.9187 12.0718C13.9013 11.6125 13.9152 11.1533 13.9152 10.694Z" fill="#0C579D"/>
</svg>
