<svg width="20" height="17" viewBox="0 0 20 17" fill="none" xmlns="http://www.w3.org/2000/svg">
<path d="M8.75673 0.000428683C8.97086 0.0475378 9.18799 0.0847963 9.39913 0.14304C10.3846 0.415845 11.1897 0.961454 11.8124 1.77173C12.0711 2.10835 12.2415 2.49807 12.2509 2.91563C12.2715 3.81927 12.3293 4.72719 12.218 5.62826C12.0672 6.84924 11.4514 7.79656 10.4454 8.48906C10.2766 8.60512 10.1841 8.71433 10.2137 8.92247C10.23 9.03724 10.2167 9.1563 10.2167 9.27365C10.2167 9.85865 10.2175 9.8548 10.7713 9.976C11.5272 10.1413 12.2839 10.3053 13.0368 10.4839C14.149 10.7482 14.8929 11.4381 15.2685 12.5083C15.6295 13.537 15.9601 14.5764 16.3015 15.6115C16.4227 15.9798 16.3186 16.2608 16.0355 16.3524C15.7477 16.4454 15.5092 16.2895 15.3824 15.9113C15.0458 14.9079 14.71 13.904 14.3798 12.8985C14.0646 11.9383 13.3529 11.4861 12.4034 11.325C12.2728 11.3028 12.2655 11.3687 12.2664 11.4655C12.2689 11.7212 12.2728 11.9769 12.2646 12.2325C12.2608 12.3503 12.3096 12.3854 12.415 12.4265C13.3683 12.7983 13.8201 13.507 13.8047 14.5259C13.7983 14.952 13.8068 15.3781 13.8025 15.8043C13.7987 16.1927 13.6244 16.3627 13.2355 16.3679C13.0972 16.3696 12.9584 16.3679 12.8201 16.3679C12.5623 16.3683 12.3923 16.2428 12.3383 15.9935C12.2809 15.7289 12.3893 15.5079 12.6449 15.4398C12.83 15.3905 12.8475 15.3092 12.8377 15.1576C12.8154 14.8077 12.8754 14.4548 12.7936 14.107C12.6706 13.5833 12.194 13.2441 11.6557 13.2989C11.1469 13.3507 10.7464 13.7867 10.7315 14.3113C10.7255 14.5242 10.7293 14.7374 10.7293 14.9503C10.7293 15.1811 10.6689 15.415 11.0163 15.5015C11.2 15.5473 11.2754 15.7786 11.2244 15.9867C11.1756 16.1863 11.0475 16.322 10.8368 16.3636C10.8163 16.3678 10.7944 16.3653 10.773 16.367C9.87964 16.4424 9.74431 16.3199 9.74559 15.4291C9.74602 15.0458 9.7396 14.6616 9.75544 14.2788C9.7927 13.3863 10.2544 12.7846 11.0711 12.4625C11.2608 12.3876 11.3032 12.2933 11.2959 12.1152C11.2852 11.8599 11.2749 11.6021 11.2985 11.3486C11.319 11.1263 11.2235 11.0535 11.027 11.0201C10.7447 10.9721 10.4608 10.9216 10.1884 10.8377C10.0051 10.7811 9.92461 10.8342 9.83596 10.9867C9.48349 11.5927 9.09206 12.1769 8.76529 12.7961C8.40898 13.4706 7.92718 13.4359 7.59142 12.785C7.27065 12.1636 6.87622 11.5803 6.52033 10.9764C6.44025 10.8402 6.36658 10.7794 6.19228 10.8325C5.89892 10.922 5.59699 10.9944 5.29335 11.0372C5.0925 11.0655 5.06423 11.158 5.0668 11.3306C5.07537 11.9165 5.08008 12.5028 5.06509 13.0882C5.05952 13.3122 5.10791 13.4411 5.32547 13.5576C5.991 13.9135 6.26466 14.6985 6.00299 15.3927C5.74731 16.0715 5.01969 16.4861 4.31434 16.3546C3.58115 16.218 3.0364 15.5469 3.0758 14.7974C3.10535 14.2368 3.3713 13.7987 3.87366 13.5413C4.05824 13.4467 4.10449 13.3417 4.10021 13.1499C4.08736 12.6068 4.09121 12.0634 4.09849 11.5199C4.10064 11.3563 4.08136 11.3105 3.88907 11.3426C2.8471 11.5169 2.2077 12.1019 1.90835 13.1177C1.6334 14.0514 1.29807 14.967 0.993146 15.892C0.920341 16.113 0.827836 16.3135 0.572162 16.3619C0.299785 16.4137 0.132334 16.2591 0 16.0479C0 15.9199 0 15.7923 0 15.6642C0.325481 14.4188 0.693789 13.1846 1.22998 12.0145C1.63597 11.1285 2.38629 10.6163 3.32762 10.3927C4.11477 10.2055 4.90449 10.0312 5.69678 9.86765C5.94603 9.81626 6.08007 9.70405 6.05138 9.43767C6.04453 9.37472 6.04367 9.30919 6.05181 9.24624C6.09806 8.8745 5.96359 8.62654 5.65138 8.38799C4.55931 7.55331 4.02997 6.41584 4.00727 5.04539C3.99742 4.44924 4.00813 3.85267 4.00513 3.25653C4.00171 2.56402 4.23383 1.97045 4.70791 1.46081C5.21584 0.914774 5.78628 0.469378 6.49421 0.208993C6.80812 0.0933619 7.12633 0.027838 7.45994 0.0329772C7.57258 0.0175597 7.69121 0.0672376 7.79913 0C8.11776 0.000428265 8.43724 0.000428683 8.75673 0.000428683Z" fill="#0C579D"/>
<path d="M7.4707 0.059528C7.47541 0.04668 7.48141 0.0342606 7.48441 0.0209844C7.48569 0.0145605 7.48055 0.00727948 7.47841 0.000427246C7.58505 0.000427246 7.69169 0.000427246 7.7979 0.000427246C7.70325 0.100213 7.58633 0.0758021 7.4707 0.059528Z" fill="#0C579D"/>
<path d="M8.17284 8.20126C6.48976 8.19613 5.14158 6.88692 5.07863 5.19699C5.0752 5.10277 5.04865 5.01412 5.18184 4.96872C5.55614 4.8411 5.83237 4.57172 6.08805 4.28607C6.20154 4.1593 6.29832 4.1653 6.44479 4.21883C7.59511 4.63896 8.75228 4.64495 9.90174 4.22097C10.0868 4.15288 10.1891 4.18971 10.3077 4.32076C10.5514 4.59014 10.8169 4.83767 11.1673 4.9623C11.288 5.00512 11.2893 5.07793 11.2868 5.182C11.2465 6.86593 9.8662 8.2064 8.17284 8.20126Z" fill="white"/>
<path d="M5.08872 3.9242C4.96196 2.60471 5.2459 2.01114 6.63133 1.31692C7.78765 0.737478 8.98636 0.830841 10.1037 1.50621C10.9727 2.03127 11.4909 2.75589 11.2497 3.87666C11.0634 3.69293 10.8737 3.5182 10.6981 3.32976C10.4673 3.08137 10.2339 3.02313 9.90413 3.17345C8.75938 3.69508 7.59793 3.69036 6.45275 3.17131C6.14054 3.02998 5.90842 3.06595 5.68487 3.31178C5.50757 3.50621 5.31827 3.68951 5.08872 3.9242Z" fill="white"/>
<path d="M8.18121 11.8604C7.83517 11.2831 7.50455 10.7653 7.21034 10.227C7.02961 9.89591 7.16109 9.51775 7.13839 9.16143C7.13068 9.04195 7.23646 9.06893 7.30284 9.08435C7.89213 9.22096 8.48014 9.21968 9.069 9.08092C9.20048 9.05009 9.23046 9.11518 9.23175 9.23509C9.23646 9.73231 9.26087 10.2162 8.91697 10.6539C8.63903 11.0077 8.44203 11.4248 8.18121 11.8604Z" fill="white"/>
<path d="M5.11905 14.8514C5.12333 15.1524 4.88222 15.4047 4.58843 15.406C4.30021 15.4072 4.04111 15.1439 4.04496 14.8544C4.04882 14.5747 4.2895 14.3297 4.56959 14.3203C4.87023 14.3109 5.11477 14.5469 5.11905 14.8514Z" fill="#FCFCFC"/>
<path d="M8.96387 13.7921C9.57975 11.9834 10.5186 10.3179 11.3035 8.58438C11.8338 7.41265 13.0277 6.79417 14.2673 6.96906C15.4527 7.13642 16.3829 8.03581 16.626 9.25977C16.6755 9.50976 16.6813 9.76443 16.6568 10.0209C16.6325 10.2751 16.5644 10.5173 16.4851 10.7605C18.1603 10.8135 19.2799 11.9618 19.546 13.2786C19.8168 14.6174 19.1518 16.0017 17.942 16.6363C16.7384 17.2678 15.1198 17.1079 14.0451 15.8544C13.8087 16.1444 13.5419 16.3962 13.2236 16.596C11.5977 17.6162 9.32176 16.6004 9.00926 14.7107C9.00247 14.6702 9.00404 14.6286 9.00169 14.5873C8.95422 14.4779 9.01943 14.356 8.96387 14.2476C8.96387 14.0956 8.96387 13.9438 8.96387 13.7921Z" fill="#0C579D"/>
<path d="M8.96387 14.2473C9.04212 14.3534 8.99752 14.4729 9.00169 14.587L8.98421 14.5769L8.96387 14.5784C8.96387 14.468 8.96387 14.3578 8.96387 14.2473Z" fill="#0C579D"/>
<path d="M11.8454 16.2878C10.3677 16.3567 9.2614 14.8588 9.79929 13.4779C10.0625 12.8017 10.4042 12.156 10.7063 11.4946C10.7459 11.4078 10.7882 11.4099 10.8615 11.4445C11.7273 11.8498 12.5925 12.2563 13.462 12.6541C13.5723 12.7045 13.5587 12.7596 13.5295 12.8425C13.2681 13.587 13.2893 14.3266 13.5817 15.0568C13.6232 15.1605 13.6106 15.232 13.552 15.3203C13.1461 15.9318 12.5737 16.2462 11.8454 16.2878Z" fill="white"/>
<path d="M13.8093 7.6538C14.9159 7.60079 15.8881 8.49083 15.9538 9.59759C15.9778 10.0022 15.8972 10.3735 15.7295 10.7355C15.6867 10.828 15.633 10.8891 15.5297 10.9206C14.9031 11.1116 14.3934 11.4741 13.9953 11.9902C13.9244 12.0819 13.8706 12.077 13.7752 12.032C12.9164 11.6274 12.0548 11.2288 11.194 10.8288C11.1215 10.7953 11.0359 10.7828 11.0949 10.661C11.4029 10.0248 11.6847 9.37515 12.0144 8.75069C12.389 8.04178 13.0116 7.69434 13.8093 7.6538Z" fill="white"/>
<path d="M16.4759 16.2972C15.9878 16.2935 15.5404 16.1589 15.1317 15.8915C15.0451 15.8349 15.0378 15.8026 15.1147 15.7262C16.1879 14.6626 17.2592 13.5972 18.3261 12.5276C18.4453 12.408 18.4675 12.5143 18.5111 12.5808C19.513 14.1148 18.4751 16.1706 16.6412 16.2855C16.5859 16.2891 16.5309 16.2933 16.4759 16.2972Z" fill="white"/>
<path d="M17.9169 11.9582C16.8117 13.0569 15.7184 14.1418 14.6288 15.2307C14.5425 15.317 14.5088 15.298 14.4496 15.2068C13.5019 13.7513 14.3296 11.7994 16.0612 11.5092C16.7444 11.3948 17.3926 11.552 17.9169 11.9582Z" fill="white"/>
<path d="M13.906 8.17535C13.8956 8.17431 13.9368 8.17587 13.9775 8.1821C14.5962 8.27539 14.6325 8.36557 14.2691 8.88841C14.2287 8.94662 14.1956 8.94325 14.1332 8.92557C13.7051 8.805 13.3613 8.92532 13.1148 9.299C13.0731 9.36215 13.0332 9.37826 12.963 9.33772C12.8803 9.28991 12.7898 9.25508 12.7029 9.21454C12.3936 9.07058 12.3894 9.0672 12.6041 8.79668C12.9218 8.39649 13.3423 8.19224 13.906 8.17535Z" fill="#0C579D"/>
</svg>
