<svg width="22" height="18" viewBox="0 0 22 18" fill="none" xmlns="http://www.w3.org/2000/svg">
<path d="M10.9059 0.000393965C11.1027 0.0436878 11.3023 0.0779288 11.4963 0.131456C12.4019 0.382167 13.1419 0.883588 13.7141 1.62824C13.9519 1.9376 14.1085 2.29576 14.1172 2.6795C14.1361 3.50995 14.1892 4.34434 14.0869 5.17244C13.9483 6.29453 13.3823 7.16513 12.4578 7.80155C12.3028 7.90821 12.2177 8.00858 12.2449 8.19986C12.2599 8.30534 12.2477 8.41475 12.2477 8.52259C12.2477 9.06023 12.2484 9.05668 12.7573 9.16807C13.452 9.31999 14.1475 9.47073 14.8394 9.63485C15.8615 9.87769 16.5452 10.5118 16.8903 11.4953C17.2221 12.4407 17.526 13.3959 17.8396 14.3472C17.951 14.6857 17.8554 14.9439 17.5952 15.0281C17.3307 15.1135 17.1115 14.9702 16.995 14.6227C16.6857 13.7005 16.3771 12.778 16.0737 11.8539C15.784 10.9715 15.1298 10.5558 14.2573 10.4078C14.1372 10.3874 14.1305 10.448 14.1313 10.5369C14.1337 10.7719 14.1372 11.0069 14.1298 11.2418C14.1262 11.3501 14.1711 11.3823 14.2679 11.4201C15.144 11.7618 15.5592 12.4131 15.5451 13.3495C15.5392 13.7411 15.547 14.1327 15.5431 14.5243C15.5396 14.8813 15.3794 15.0375 15.022 15.0423C14.8949 15.0438 14.7674 15.0423 14.6402 15.0423C14.4033 15.0427 14.247 14.9273 14.1975 14.6983C14.1447 14.455 14.2443 14.2519 14.4793 14.1894C14.6493 14.1441 14.6654 14.0693 14.6564 13.93C14.6359 13.6084 14.691 13.2841 14.6158 12.9645C14.5029 12.4832 14.0648 12.1715 13.5701 12.2219C13.1025 12.2695 12.7345 12.6701 12.7207 13.1523C12.7152 13.3479 12.7188 13.5439 12.7188 13.7395C12.7188 13.9516 12.6633 14.1665 12.9825 14.246C13.1513 14.2882 13.2206 14.5007 13.1737 14.692C13.1289 14.8754 13.0112 15.0001 12.8176 15.0383C12.7987 15.0423 12.7786 15.0399 12.7589 15.0415C11.9379 15.1107 11.8135 14.9982 11.8147 14.1795C11.8151 13.8273 11.8092 13.4742 11.8238 13.1224C11.858 12.3021 12.2823 11.7492 13.0328 11.4532C13.2072 11.3843 13.2462 11.2977 13.2395 11.134C13.2296 10.8994 13.2202 10.6625 13.2418 10.4295C13.2607 10.2252 13.173 10.1583 12.9923 10.1276C12.7329 10.0835 12.472 10.0371 12.2217 9.95995C12.0532 9.908 11.9792 9.9568 11.8978 10.0969C11.5738 10.6538 11.2141 11.1907 10.9138 11.7598C10.5864 12.3797 10.1436 12.3478 9.83501 11.7496C9.54022 11.1785 9.17773 10.6424 8.85066 10.0875C8.77706 9.96231 8.70937 9.90642 8.54918 9.95523C8.27958 10.0375 8.0021 10.104 7.72305 10.1434C7.53846 10.1693 7.51249 10.2543 7.51485 10.413C7.52272 10.9514 7.52705 11.4902 7.51327 12.0282C7.50816 12.2341 7.55263 12.3525 7.75257 12.4596C8.3642 12.7866 8.61569 13.5081 8.37522 14.1461C8.14025 14.7699 7.47156 15.1509 6.82333 15.0301C6.14952 14.9045 5.64888 14.2878 5.68509 13.599C5.71225 13.0838 5.95666 12.6812 6.41833 12.4446C6.58797 12.3576 6.63047 12.2612 6.62654 12.0849C6.61473 11.5858 6.61827 11.0864 6.62496 10.5869C6.62693 10.4366 6.60922 10.3945 6.4325 10.424C5.47492 10.5842 4.88731 11.1218 4.61219 12.0554C4.35951 12.9134 4.05134 13.7549 3.77111 14.605C3.7042 14.8081 3.61919 14.9923 3.38422 15.0367C3.1339 15.0844 2.98001 14.9423 2.8584 14.7483C2.8584 14.6306 2.8584 14.5133 2.8584 14.3956C3.15752 13.2511 3.496 12.1168 3.98876 11.0415C4.36188 10.2272 5.05143 9.75647 5.91652 9.55102C6.63992 9.37902 7.36568 9.21884 8.09381 9.06849C8.32287 9.02126 8.44606 8.91814 8.41969 8.67334C8.41339 8.61548 8.41261 8.55526 8.42008 8.4974C8.46259 8.15578 8.33901 7.92789 8.05209 7.70867C7.04846 6.94158 6.56199 5.89623 6.54113 4.63677C6.53208 4.08891 6.54192 3.54065 6.53916 2.99279C6.53601 2.35637 6.74933 1.81086 7.18503 1.3425C7.65181 0.840689 8.17606 0.431364 8.82665 0.192068C9.11515 0.0858008 9.40758 0.0255835 9.71418 0.0303065C9.81769 0.0161376 9.92671 0.0617922 10.0259 0C10.3187 0.000393581 10.6123 0.000393965 10.9059 0.000393965Z" fill="#0C579D"/>
<path d="M9.72461 0.054711C9.72894 0.0429036 9.73445 0.03149 9.7372 0.019289C9.73838 0.0133853 9.73366 0.00669402 9.73169 0.000396729C9.8297 0.000396729 9.9277 0.000396729 10.0253 0.000396729C9.93832 0.092101 9.83088 0.0696671 9.72461 0.054711Z" fill="#0C579D"/>
<path d="M10.3701 7.53708C8.82336 7.53235 7.58437 6.32918 7.52651 4.77611C7.52336 4.68952 7.49896 4.60805 7.62136 4.56633C7.96535 4.44904 8.21921 4.20148 8.45418 3.93896C8.55848 3.82246 8.64743 3.82797 8.78203 3.87717C9.83919 4.26327 10.9026 4.26878 11.959 3.87914C12.129 3.81656 12.2231 3.85041 12.3321 3.97084C12.5561 4.2184 12.8001 4.44589 13.122 4.56043C13.233 4.59978 13.2342 4.66669 13.2319 4.76233C13.1949 6.30989 11.9263 7.5418 10.3701 7.53708Z" fill="white"/>
<path d="M7.53476 3.6064C7.41826 2.39378 7.67921 1.84827 8.95244 1.21028C10.0151 0.677766 11.1167 0.763567 12.1436 1.38424C12.9422 1.86677 13.4184 2.53271 13.1968 3.56271C13.0256 3.39387 12.8513 3.23328 12.6899 3.06011C12.4777 2.83183 12.2632 2.77831 11.9602 2.91645C10.9081 3.39583 9.84075 3.3915 8.78832 2.91448C8.5014 2.7846 8.28808 2.81766 8.08263 3.04358C7.91969 3.22227 7.74572 3.39072 7.53476 3.6064Z" fill="white"/>
<path d="M10.3779 10.8998C10.0599 10.3693 9.75607 9.89343 9.48568 9.3987C9.31959 9.09446 9.44042 8.74693 9.41956 8.41947C9.41247 8.30966 9.50969 8.33446 9.57069 8.34863C10.1123 8.47418 10.6526 8.473 11.1938 8.34548C11.3146 8.31714 11.3422 8.37697 11.3434 8.48717C11.3477 8.94412 11.3701 9.38886 11.0541 9.7911C10.7987 10.1162 10.6176 10.4995 10.3779 10.8998Z" fill="white"/>
<path d="M7.56233 13.6486C7.56627 13.9253 7.34468 14.1571 7.07469 14.1583C6.80981 14.1594 6.57169 13.9174 6.57523 13.6513C6.57878 13.3943 6.79997 13.1692 7.05737 13.1605C7.33366 13.1519 7.5584 13.3687 7.56233 13.6486Z" fill="#FCFCFC"/>
<circle cx="5.79355" cy="13.0352" r="2.44097" transform="rotate(2.59302 5.79355 13.0352)" fill="white" stroke="#0C579D"/>
<path d="M1 16.7031L3.43395 14.7841" stroke="#0C579D" stroke-linecap="round"/>
<path d="M3.34277 16.8091L1.09224 14.678" stroke="#0C579D" stroke-linecap="round"/>
<path d="M21.7153 4.91574C21.7365 4.64041 21.5305 4.40003 21.2552 4.37883L16.7685 4.03331C16.4931 4.01211 16.2528 4.21812 16.2316 4.49344C16.2104 4.76877 16.4164 5.00916 16.6917 5.03036L20.6799 5.33748L20.3728 9.32568C20.3516 9.601 20.5576 9.84139 20.8329 9.86259C21.1082 9.88379 21.3486 9.67778 21.3698 9.40246L21.7153 4.91574ZM18.1519 6.84547C17.9422 7.02516 17.9179 7.34081 18.0976 7.55049C18.2773 7.76017 18.5929 7.78448 18.8026 7.60478L18.1519 6.84547ZM20.8914 4.49769L18.1519 6.84547L18.8026 7.60478L21.5422 5.25701L20.8914 4.49769Z" fill="#0C579D"/>
<path d="M16.7441 11.0049C16.743 11.2484 16.9409 11.4507 17.1806 11.4084C17.5394 11.3449 17.8814 11.202 18.1807 10.9879C18.6001 10.6877 18.9142 10.2629 19.0783 9.77395C19.2424 9.28496 19.2481 8.75668 19.0946 8.26427C18.9411 7.77185 18.6362 7.3404 18.2233 7.03128C17.8104 6.72217 17.3105 6.55114 16.7948 6.54254C16.2791 6.53394 15.7738 6.68819 15.3508 6.98336C14.9278 7.27853 14.6087 7.69958 14.4389 8.1866C14.3177 8.53406 14.2769 8.90248 14.3171 9.26456C14.3439 9.50654 14.5939 9.63948 14.8271 9.56977C15.0604 9.50006 15.1862 9.25255 15.1838 9.0091C15.1821 8.82907 15.2113 8.64899 15.2713 8.47693C15.3801 8.16505 15.5845 7.89541 15.8554 7.70638C16.1262 7.51735 16.4498 7.41857 16.7801 7.42408C17.1104 7.42959 17.4305 7.53911 17.6949 7.73707C17.9593 7.93503 18.1546 8.21133 18.2529 8.52667C18.3512 8.84202 18.3475 9.18033 18.2425 9.49348C18.1374 9.80663 17.9362 10.0787 17.6676 10.2709C17.5194 10.3769 17.3549 10.4557 17.1816 10.5047C16.9474 10.5711 16.7453 10.7615 16.7441 11.0049Z" fill="#0C579D"/>
</svg>
